<mxfile host="app.diagrams.net" agent="Mozilla/5.0 (Windows NT 10.0; Win64; x64) AppleWebKit/537.36 (KHTML, like Gecko) Chrome/129.0.0.0 Safari/537.36" version="25.0.3">
  <diagram id="C5RBs43oDa-KdzZeNtuy" name="Page-1">
    <mxGraphModel dx="3225" dy="1543" grid="1" gridSize="10" guides="1" tooltips="1" connect="1" arrows="1" fold="1" page="1" pageScale="1" pageWidth="827" pageHeight="1169" math="0" shadow="0">
      <root>
        <mxCell id="WIyWlLk6GJQsqaUBKTNV-0" />
        <mxCell id="WIyWlLk6GJQsqaUBKTNV-1" parent="WIyWlLk6GJQsqaUBKTNV-0" />
        <mxCell id="BTnv91q3jWUFgaDJkeV0-0" value="" style="edgeStyle=orthogonalEdgeStyle;rounded=0;orthogonalLoop=1;jettySize=auto;html=1;" parent="WIyWlLk6GJQsqaUBKTNV-1" source="jwS2e_aPXgQfTxwPNNqi-0" target="jwS2e_aPXgQfTxwPNNqi-1" edge="1">
          <mxGeometry relative="1" as="geometry" />
        </mxCell>
        <mxCell id="jwS2e_aPXgQfTxwPNNqi-0" value="Start" style="ellipse;whiteSpace=wrap;html=1;" parent="WIyWlLk6GJQsqaUBKTNV-1" vertex="1">
          <mxGeometry x="345.26" y="40" width="110" height="40" as="geometry" />
        </mxCell>
        <mxCell id="jwS2e_aPXgQfTxwPNNqi-4" value="" style="edgeStyle=orthogonalEdgeStyle;rounded=0;orthogonalLoop=1;jettySize=auto;html=1;" parent="WIyWlLk6GJQsqaUBKTNV-1" source="jwS2e_aPXgQfTxwPNNqi-1" target="jwS2e_aPXgQfTxwPNNqi-3" edge="1">
          <mxGeometry relative="1" as="geometry" />
        </mxCell>
        <mxCell id="jwS2e_aPXgQfTxwPNNqi-1" value="&amp;nbsp;jumlahMhs, jumlahMataKuliah" style="shape=parallelogram;perimeter=parallelogramPerimeter;whiteSpace=wrap;html=1;fixedSize=1;" parent="WIyWlLk6GJQsqaUBKTNV-1" vertex="1">
          <mxGeometry x="302.76" y="120" width="195" height="40" as="geometry" />
        </mxCell>
        <mxCell id="jwS2e_aPXgQfTxwPNNqi-33" value="" style="edgeStyle=orthogonalEdgeStyle;rounded=0;orthogonalLoop=1;jettySize=auto;html=1;" parent="WIyWlLk6GJQsqaUBKTNV-1" source="jwS2e_aPXgQfTxwPNNqi-3" target="jwS2e_aPXgQfTxwPNNqi-5" edge="1">
          <mxGeometry relative="1" as="geometry" />
        </mxCell>
        <mxCell id="jwS2e_aPXgQfTxwPNNqi-3" value="&lt;p data-pm-slice=&quot;1 1 []&quot;&gt;int[][] nilai = new int[jumlahMhs][jumlahMataKuliah]&lt;/p&gt;" style="shape=hexagon;perimeter=hexagonPerimeter2;whiteSpace=wrap;html=1;fixedSize=1;" parent="WIyWlLk6GJQsqaUBKTNV-1" vertex="1">
          <mxGeometry x="255.39" y="200" width="289.74" height="40" as="geometry" />
        </mxCell>
        <mxCell id="jwS2e_aPXgQfTxwPNNqi-34" value="" style="edgeStyle=orthogonalEdgeStyle;rounded=0;orthogonalLoop=1;jettySize=auto;html=1;" parent="WIyWlLk6GJQsqaUBKTNV-1" source="jwS2e_aPXgQfTxwPNNqi-5" target="jwS2e_aPXgQfTxwPNNqi-8" edge="1">
          <mxGeometry relative="1" as="geometry" />
        </mxCell>
        <mxCell id="jwS2e_aPXgQfTxwPNNqi-5" value="String[] namaMhs = new String[jumlahMhs]" style="shape=hexagon;perimeter=hexagonPerimeter2;fixedSize=1;fontFamily=Helvetica;fontColor=default;" parent="WIyWlLk6GJQsqaUBKTNV-1" vertex="1">
          <mxGeometry x="272.76" y="280" width="255" height="40" as="geometry" />
        </mxCell>
        <mxCell id="jwS2e_aPXgQfTxwPNNqi-36" value="" style="edgeStyle=orthogonalEdgeStyle;rounded=0;orthogonalLoop=1;jettySize=auto;html=1;" parent="WIyWlLk6GJQsqaUBKTNV-1" source="jwS2e_aPXgQfTxwPNNqi-7" target="jwS2e_aPXgQfTxwPNNqi-11" edge="1">
          <mxGeometry relative="1" as="geometry" />
        </mxCell>
        <mxCell id="B4vdxbvmDV-0QUIjVJQJ-12" style="edgeStyle=orthogonalEdgeStyle;rounded=0;orthogonalLoop=1;jettySize=auto;html=1;exitX=1;exitY=0.5;exitDx=0;exitDy=0;entryX=1;entryY=0.5;entryDx=0;entryDy=0;" parent="WIyWlLk6GJQsqaUBKTNV-1" source="jwS2e_aPXgQfTxwPNNqi-7" target="jwS2e_aPXgQfTxwPNNqi-45" edge="1">
          <mxGeometry relative="1" as="geometry">
            <mxPoint x="640" y="1100" as="targetPoint" />
            <Array as="points">
              <mxPoint x="600" y="480" />
              <mxPoint x="600" y="1180" />
            </Array>
          </mxGeometry>
        </mxCell>
        <mxCell id="jwS2e_aPXgQfTxwPNNqi-7" value="i&amp;lt;jumlahMhs" style="rhombus;whiteSpace=wrap;html=1;" parent="WIyWlLk6GJQsqaUBKTNV-1" vertex="1">
          <mxGeometry x="361" y="440" width="80" height="80" as="geometry" />
        </mxCell>
        <mxCell id="jwS2e_aPXgQfTxwPNNqi-35" value="" style="edgeStyle=orthogonalEdgeStyle;rounded=0;orthogonalLoop=1;jettySize=auto;html=1;" parent="WIyWlLk6GJQsqaUBKTNV-1" source="jwS2e_aPXgQfTxwPNNqi-8" target="jwS2e_aPXgQfTxwPNNqi-7" edge="1">
          <mxGeometry relative="1" as="geometry" />
        </mxCell>
        <mxCell id="jwS2e_aPXgQfTxwPNNqi-8" value="int i=0, j=0" style="shape=parallelogram;perimeter=parallelogramPerimeter;whiteSpace=wrap;html=1;fixedSize=1;" parent="WIyWlLk6GJQsqaUBKTNV-1" vertex="1">
          <mxGeometry x="341" y="360" width="120" height="40" as="geometry" />
        </mxCell>
        <mxCell id="BTnv91q3jWUFgaDJkeV0-2" value="" style="edgeStyle=orthogonalEdgeStyle;rounded=0;orthogonalLoop=1;jettySize=auto;html=1;" parent="WIyWlLk6GJQsqaUBKTNV-1" source="jwS2e_aPXgQfTxwPNNqi-11" target="B4vdxbvmDV-0QUIjVJQJ-2" edge="1">
          <mxGeometry relative="1" as="geometry" />
        </mxCell>
        <mxCell id="jwS2e_aPXgQfTxwPNNqi-11" value="input namaMhs ke(i+1), nilaiMhs ke(i+1)" style="shape=parallelogram;perimeter=parallelogramPerimeter;whiteSpace=wrap;html=1;fixedSize=1;" parent="WIyWlLk6GJQsqaUBKTNV-1" vertex="1">
          <mxGeometry x="278.75" y="560" width="244.5" height="40" as="geometry" />
        </mxCell>
        <mxCell id="jwS2e_aPXgQfTxwPNNqi-18" style="edgeStyle=orthogonalEdgeStyle;rounded=0;orthogonalLoop=1;jettySize=auto;html=1;exitX=1;exitY=0.5;exitDx=0;exitDy=0;entryX=1;entryY=0.5;entryDx=0;entryDy=0;" parent="WIyWlLk6GJQsqaUBKTNV-1" target="jwS2e_aPXgQfTxwPNNqi-25" edge="1">
          <mxGeometry relative="1" as="geometry">
            <mxPoint x="445" y="1060" as="targetPoint" />
            <Array as="points">
              <mxPoint x="561" y="760" />
              <mxPoint x="561" y="1100" />
            </Array>
            <mxPoint x="440" y="760" as="sourcePoint" />
          </mxGeometry>
        </mxCell>
        <mxCell id="B4vdxbvmDV-0QUIjVJQJ-9" style="edgeStyle=orthogonalEdgeStyle;rounded=0;orthogonalLoop=1;jettySize=auto;html=1;exitX=0.5;exitY=1;exitDx=0;exitDy=0;entryX=0.5;entryY=0;entryDx=0;entryDy=0;" parent="WIyWlLk6GJQsqaUBKTNV-1" source="jwS2e_aPXgQfTxwPNNqi-13" target="jwS2e_aPXgQfTxwPNNqi-38" edge="1">
          <mxGeometry relative="1" as="geometry" />
        </mxCell>
        <mxCell id="jwS2e_aPXgQfTxwPNNqi-13" value="j&amp;lt;jumlah matkul" style="rhombus;whiteSpace=wrap;html=1;" parent="WIyWlLk6GJQsqaUBKTNV-1" vertex="1">
          <mxGeometry x="339.63" y="720" width="120" height="80" as="geometry" />
        </mxCell>
        <mxCell id="jwS2e_aPXgQfTxwPNNqi-15" value="j++" style="rounded=0;whiteSpace=wrap;html=1;" parent="WIyWlLk6GJQsqaUBKTNV-1" vertex="1">
          <mxGeometry x="359.63" y="1000" width="80" height="40" as="geometry" />
        </mxCell>
        <mxCell id="jwS2e_aPXgQfTxwPNNqi-29" style="edgeStyle=orthogonalEdgeStyle;rounded=0;orthogonalLoop=1;jettySize=auto;html=1;exitX=0;exitY=0.5;exitDx=0;exitDy=0;" parent="WIyWlLk6GJQsqaUBKTNV-1" source="jwS2e_aPXgQfTxwPNNqi-25" edge="1">
          <mxGeometry relative="1" as="geometry">
            <mxPoint x="400" y="420" as="targetPoint" />
            <Array as="points">
              <mxPoint x="361" y="1100" />
              <mxPoint x="218" y="1100" />
              <mxPoint x="218" y="420" />
            </Array>
            <mxPoint x="360" y="1060" as="sourcePoint" />
          </mxGeometry>
        </mxCell>
        <mxCell id="jwS2e_aPXgQfTxwPNNqi-25" value="i++" style="rounded=0;whiteSpace=wrap;html=1;" parent="WIyWlLk6GJQsqaUBKTNV-1" vertex="1">
          <mxGeometry x="359.63" y="1080" width="80" height="40" as="geometry" />
        </mxCell>
        <mxCell id="B4vdxbvmDV-0QUIjVJQJ-10" style="edgeStyle=orthogonalEdgeStyle;rounded=0;orthogonalLoop=1;jettySize=auto;html=1;exitX=0.5;exitY=1;exitDx=0;exitDy=0;entryX=0.5;entryY=0;entryDx=0;entryDy=0;" parent="WIyWlLk6GJQsqaUBKTNV-1" source="jwS2e_aPXgQfTxwPNNqi-38" target="B4vdxbvmDV-0QUIjVJQJ-7" edge="1">
          <mxGeometry relative="1" as="geometry" />
        </mxCell>
        <mxCell id="jwS2e_aPXgQfTxwPNNqi-38" value="input nilai matkul ke(j+1)" style="shape=parallelogram;perimeter=parallelogramPerimeter;whiteSpace=wrap;html=1;fixedSize=1;" parent="WIyWlLk6GJQsqaUBKTNV-1" vertex="1">
          <mxGeometry x="308.26" y="840" width="182.75" height="40" as="geometry" />
        </mxCell>
        <mxCell id="jwS2e_aPXgQfTxwPNNqi-40" value="iya" style="text;strokeColor=none;fillColor=none;align=left;verticalAlign=middle;spacingLeft=4;spacingRight=4;overflow=hidden;points=[[0,0.5],[1,0.5]];portConstraint=eastwest;rotatable=0;whiteSpace=wrap;html=1;" parent="WIyWlLk6GJQsqaUBKTNV-1" vertex="1">
          <mxGeometry x="400.26" y="520" width="55" height="20" as="geometry" />
        </mxCell>
        <mxCell id="jwS2e_aPXgQfTxwPNNqi-41" value="iya" style="text;strokeColor=none;fillColor=none;align=left;verticalAlign=middle;spacingLeft=4;spacingRight=4;overflow=hidden;points=[[0,0.5],[1,0.5]];portConstraint=eastwest;rotatable=0;whiteSpace=wrap;html=1;" parent="WIyWlLk6GJQsqaUBKTNV-1" vertex="1">
          <mxGeometry x="400.26" y="800" width="55" height="20" as="geometry" />
        </mxCell>
        <mxCell id="jwS2e_aPXgQfTxwPNNqi-42" value="tidak" style="text;strokeColor=none;fillColor=none;align=left;verticalAlign=middle;spacingLeft=4;spacingRight=4;overflow=hidden;points=[[0,0.5],[1,0.5]];portConstraint=eastwest;rotatable=0;whiteSpace=wrap;html=1;" parent="WIyWlLk6GJQsqaUBKTNV-1" vertex="1">
          <mxGeometry x="441" y="460" width="55" height="20" as="geometry" />
        </mxCell>
        <mxCell id="jwS2e_aPXgQfTxwPNNqi-43" value="tidak" style="text;strokeColor=none;fillColor=none;align=left;verticalAlign=middle;spacingLeft=4;spacingRight=4;overflow=hidden;points=[[0,0.5],[1,0.5]];portConstraint=eastwest;rotatable=0;whiteSpace=wrap;html=1;" parent="WIyWlLk6GJQsqaUBKTNV-1" vertex="1">
          <mxGeometry x="459.63" y="740" width="55" height="20" as="geometry" />
        </mxCell>
        <mxCell id="jwS2e_aPXgQfTxwPNNqi-52" value="" style="edgeStyle=orthogonalEdgeStyle;rounded=0;orthogonalLoop=1;jettySize=auto;html=1;" parent="WIyWlLk6GJQsqaUBKTNV-1" source="jwS2e_aPXgQfTxwPNNqi-45" target="jwS2e_aPXgQfTxwPNNqi-51" edge="1">
          <mxGeometry relative="1" as="geometry" />
        </mxCell>
        <mxCell id="jwS2e_aPXgQfTxwPNNqi-45" value="double rata-rata =&amp;nbsp;&lt;span style=&quot;background-color: initial;&quot;&gt;totalperMhs / jumlahmatkul&lt;/span&gt;" style="rounded=0;whiteSpace=wrap;html=1;" parent="WIyWlLk6GJQsqaUBKTNV-1" vertex="1">
          <mxGeometry x="271" y="1160" width="260" height="40" as="geometry" />
        </mxCell>
        <mxCell id="jwS2e_aPXgQfTxwPNNqi-54" value="" style="edgeStyle=orthogonalEdgeStyle;rounded=0;orthogonalLoop=1;jettySize=auto;html=1;" parent="WIyWlLk6GJQsqaUBKTNV-1" source="jwS2e_aPXgQfTxwPNNqi-51" target="jwS2e_aPXgQfTxwPNNqi-53" edge="1">
          <mxGeometry relative="1" as="geometry" />
        </mxCell>
        <mxCell id="jwS2e_aPXgQfTxwPNNqi-51" value="print &quot;rata nilai mahasiswa&quot;+namaMhs[i]:+rata rata&amp;nbsp;" style="shape=parallelogram;perimeter=parallelogramPerimeter;whiteSpace=wrap;html=1;fixedSize=1;rounded=0;" parent="WIyWlLk6GJQsqaUBKTNV-1" vertex="1">
          <mxGeometry x="244" y="1240" width="314" height="40" as="geometry" />
        </mxCell>
        <mxCell id="jwS2e_aPXgQfTxwPNNqi-59" value="" style="edgeStyle=orthogonalEdgeStyle;rounded=0;orthogonalLoop=1;jettySize=auto;html=1;" parent="WIyWlLk6GJQsqaUBKTNV-1" source="jwS2e_aPXgQfTxwPNNqi-53" target="jwS2e_aPXgQfTxwPNNqi-58" edge="1">
          <mxGeometry relative="1" as="geometry">
            <Array as="points">
              <mxPoint x="260" y="1360" />
            </Array>
          </mxGeometry>
        </mxCell>
        <mxCell id="jwS2e_aPXgQfTxwPNNqi-61" value="" style="edgeStyle=orthogonalEdgeStyle;rounded=0;orthogonalLoop=1;jettySize=auto;html=1;entryX=0.429;entryY=0;entryDx=0;entryDy=0;entryPerimeter=0;" parent="WIyWlLk6GJQsqaUBKTNV-1" source="jwS2e_aPXgQfTxwPNNqi-53" target="jwS2e_aPXgQfTxwPNNqi-62" edge="1">
          <mxGeometry relative="1" as="geometry">
            <mxPoint x="534.0526315789473" y="1440" as="targetPoint" />
            <Array as="points">
              <mxPoint x="540" y="1360" />
            </Array>
          </mxGeometry>
        </mxCell>
        <mxCell id="jwS2e_aPXgQfTxwPNNqi-53" value="if rata&amp;lt;75" style="rhombus;whiteSpace=wrap;html=1;rounded=0;" parent="WIyWlLk6GJQsqaUBKTNV-1" vertex="1">
          <mxGeometry x="361" y="1320" width="80" height="80" as="geometry" />
        </mxCell>
        <mxCell id="jwS2e_aPXgQfTxwPNNqi-58" value="Print namaMhs[i] + &quot;dinyatakan LULUS.&quot;" style="shape=parallelogram;perimeter=parallelogramPerimeter;fixedSize=1;rounded=0;fillColor=default;strokeColor=default;fontColor=default;" parent="WIyWlLk6GJQsqaUBKTNV-1" vertex="1">
          <mxGeometry x="114" y="1440" width="300" height="40" as="geometry" />
        </mxCell>
        <mxCell id="H9_sYcuOeCX_Qr50alYG-3" style="edgeStyle=orthogonalEdgeStyle;rounded=0;orthogonalLoop=1;jettySize=auto;html=1;exitX=0.5;exitY=1;exitDx=0;exitDy=0;" parent="WIyWlLk6GJQsqaUBKTNV-1" edge="1">
          <mxGeometry relative="1" as="geometry">
            <mxPoint x="420" y="1540" as="targetPoint" />
            <Array as="points">
              <mxPoint x="543" y="1540" />
            </Array>
            <mxPoint x="543.18" y="1480" as="sourcePoint" />
          </mxGeometry>
        </mxCell>
        <mxCell id="jwS2e_aPXgQfTxwPNNqi-62" value="Print&amp;nbsp;&lt;span style=&quot;background-color: initial;&quot;&gt;namaMhs[i] + &quot;dinyatakan tidak LULUS.&quot;&lt;/span&gt;" style="shape=parallelogram;perimeter=parallelogramPerimeter;whiteSpace=wrap;html=1;fixedSize=1;rounded=0;" parent="WIyWlLk6GJQsqaUBKTNV-1" vertex="1">
          <mxGeometry x="420" y="1440" width="280" height="40" as="geometry" />
        </mxCell>
        <mxCell id="B4vdxbvmDV-0QUIjVJQJ-3" value="" style="edgeStyle=orthogonalEdgeStyle;rounded=0;orthogonalLoop=1;jettySize=auto;html=1;exitX=0;exitY=0.5;exitDx=0;exitDy=0;" parent="WIyWlLk6GJQsqaUBKTNV-1" source="jwS2e_aPXgQfTxwPNNqi-15" edge="1">
          <mxGeometry relative="1" as="geometry">
            <mxPoint x="400" y="700" as="targetPoint" />
            <Array as="points">
              <mxPoint x="300" y="1020" />
              <mxPoint x="300" y="700" />
            </Array>
            <mxPoint x="360" y="950" as="sourcePoint" />
          </mxGeometry>
        </mxCell>
        <mxCell id="BTnv91q3jWUFgaDJkeV0-3" value="" style="edgeStyle=orthogonalEdgeStyle;rounded=0;orthogonalLoop=1;jettySize=auto;html=1;" parent="WIyWlLk6GJQsqaUBKTNV-1" source="B4vdxbvmDV-0QUIjVJQJ-2" target="jwS2e_aPXgQfTxwPNNqi-13" edge="1">
          <mxGeometry relative="1" as="geometry" />
        </mxCell>
        <mxCell id="B4vdxbvmDV-0QUIjVJQJ-2" value="double totalPerMhs&amp;nbsp;&lt;span style=&quot;background-color: initial;&quot;&gt;= 0&lt;/span&gt;" style="shape=hexagon;perimeter=hexagonPerimeter2;whiteSpace=wrap;html=1;fixedSize=1;" parent="WIyWlLk6GJQsqaUBKTNV-1" vertex="1">
          <mxGeometry x="320.64" y="640" width="159.24" height="40" as="geometry" />
        </mxCell>
        <mxCell id="B4vdxbvmDV-0QUIjVJQJ-7" value="totalperMhs +=nilai[i][j]" style="rounded=0;whiteSpace=wrap;html=1;" parent="WIyWlLk6GJQsqaUBKTNV-1" vertex="1">
          <mxGeometry x="320.64" y="920" width="159" height="40" as="geometry" />
        </mxCell>
        <mxCell id="B4vdxbvmDV-0QUIjVJQJ-49" value="iya" style="text;html=1;align=center;verticalAlign=middle;whiteSpace=wrap;rounded=0;fontFamily=Helvetica;fontSize=12;fontColor=default;" parent="WIyWlLk6GJQsqaUBKTNV-1" vertex="1">
          <mxGeometry x="301" y="1330" width="60" height="30" as="geometry" />
        </mxCell>
        <mxCell id="B4vdxbvmDV-0QUIjVJQJ-50" value="tidak" style="text;html=1;align=center;verticalAlign=middle;whiteSpace=wrap;rounded=0;fontFamily=Helvetica;fontSize=12;fontColor=default;" parent="WIyWlLk6GJQsqaUBKTNV-1" vertex="1">
          <mxGeometry x="441" y="1330" width="60" height="30" as="geometry" />
        </mxCell>
        <mxCell id="BTnv91q3jWUFgaDJkeV0-5" value="" style="endArrow=classic;html=1;rounded=0;exitX=0.486;exitY=0.98;exitDx=0;exitDy=0;exitPerimeter=0;entryX=0;entryY=0.5;entryDx=0;entryDy=0;" parent="WIyWlLk6GJQsqaUBKTNV-1" source="jwS2e_aPXgQfTxwPNNqi-58" target="CpKf-HVSkjeZZySReFww-56" edge="1">
          <mxGeometry width="50" height="50" relative="1" as="geometry">
            <mxPoint x="270" y="1470" as="sourcePoint" />
            <mxPoint x="292.8800000000001" y="1540" as="targetPoint" />
            <Array as="points">
              <mxPoint x="260" y="1540" />
            </Array>
          </mxGeometry>
        </mxCell>
        <mxCell id="CpKf-HVSkjeZZySReFww-1" value="" style="edgeStyle=orthogonalEdgeStyle;rounded=0;orthogonalLoop=1;jettySize=auto;html=1;" parent="WIyWlLk6GJQsqaUBKTNV-1" source="CpKf-HVSkjeZZySReFww-2" target="CpKf-HVSkjeZZySReFww-4" edge="1">
          <mxGeometry relative="1" as="geometry" />
        </mxCell>
        <mxCell id="CpKf-HVSkjeZZySReFww-2" value="&lt;div&gt;String = namaDicari&lt;/div&gt;Bolean ditemukan=false" style="shape=hexagon;perimeter=hexagonPerimeter2;whiteSpace=wrap;html=1;fixedSize=1;rounded=0;strokeColor=default;align=center;verticalAlign=middle;fontFamily=Helvetica;fontSize=12;fontColor=default;fillColor=default;" parent="WIyWlLk6GJQsqaUBKTNV-1" vertex="1">
          <mxGeometry x="913.6300000000001" y="200" width="172" height="40" as="geometry" />
        </mxCell>
        <mxCell id="CpKf-HVSkjeZZySReFww-3" value="" style="edgeStyle=orthogonalEdgeStyle;rounded=0;orthogonalLoop=1;jettySize=auto;html=1;fontFamily=Helvetica;fontSize=12;fontColor=default;" parent="WIyWlLk6GJQsqaUBKTNV-1" source="CpKf-HVSkjeZZySReFww-4" target="CpKf-HVSkjeZZySReFww-7" edge="1">
          <mxGeometry relative="1" as="geometry" />
        </mxCell>
        <mxCell id="CpKf-HVSkjeZZySReFww-4" value="int i=0, j=0" style="shape=parallelogram;perimeter=parallelogramPerimeter;whiteSpace=wrap;html=1;fixedSize=1;rounded=0;strokeColor=default;align=center;verticalAlign=middle;fontFamily=Helvetica;fontSize=12;fontColor=default;fillColor=default;" parent="WIyWlLk6GJQsqaUBKTNV-1" vertex="1">
          <mxGeometry x="939.6300000000001" y="280" width="120" height="40" as="geometry" />
        </mxCell>
        <mxCell id="CpKf-HVSkjeZZySReFww-5" value="" style="edgeStyle=orthogonalEdgeStyle;rounded=0;orthogonalLoop=1;jettySize=auto;html=1;fontFamily=Helvetica;fontSize=12;fontColor=default;" parent="WIyWlLk6GJQsqaUBKTNV-1" source="CpKf-HVSkjeZZySReFww-7" target="CpKf-HVSkjeZZySReFww-10" edge="1">
          <mxGeometry relative="1" as="geometry" />
        </mxCell>
        <mxCell id="CpKf-HVSkjeZZySReFww-6" style="edgeStyle=orthogonalEdgeStyle;rounded=0;orthogonalLoop=1;jettySize=auto;html=1;fontFamily=Helvetica;fontSize=12;fontColor=default;entryX=1;entryY=0.5;entryDx=0;entryDy=0;" parent="WIyWlLk6GJQsqaUBKTNV-1" target="CpKf-HVSkjeZZySReFww-27" edge="1">
          <mxGeometry relative="1" as="geometry">
            <mxPoint x="1172" y="1339.9999999999995" as="targetPoint" />
            <Array as="points">
              <mxPoint x="1460" y="400" />
              <mxPoint x="1460" y="1340" />
            </Array>
            <mxPoint x="1050" y="400" as="sourcePoint" />
          </mxGeometry>
        </mxCell>
        <mxCell id="CpKf-HVSkjeZZySReFww-7" value="i&amp;lt;jumlahMhs" style="rhombus;whiteSpace=wrap;html=1;rounded=0;" parent="WIyWlLk6GJQsqaUBKTNV-1" vertex="1">
          <mxGeometry x="949.4300000000001" y="360" width="100.38" height="80" as="geometry" />
        </mxCell>
        <mxCell id="CpKf-HVSkjeZZySReFww-8" value="" style="edgeStyle=orthogonalEdgeStyle;rounded=0;orthogonalLoop=1;jettySize=auto;html=1;fontFamily=Helvetica;fontSize=12;fontColor=default;" parent="WIyWlLk6GJQsqaUBKTNV-1" source="CpKf-HVSkjeZZySReFww-10" target="CpKf-HVSkjeZZySReFww-12" edge="1">
          <mxGeometry relative="1" as="geometry" />
        </mxCell>
        <mxCell id="CpKf-HVSkjeZZySReFww-9" style="edgeStyle=orthogonalEdgeStyle;rounded=0;orthogonalLoop=1;jettySize=auto;html=1;exitX=1;exitY=0.5;exitDx=0;exitDy=0;entryX=0;entryY=0.5;entryDx=0;entryDy=0;fontFamily=Helvetica;fontSize=12;fontColor=default;" parent="WIyWlLk6GJQsqaUBKTNV-1" source="CpKf-HVSkjeZZySReFww-10" target="CpKf-HVSkjeZZySReFww-41" edge="1">
          <mxGeometry relative="1" as="geometry" />
        </mxCell>
        <mxCell id="CpKf-HVSkjeZZySReFww-10" value="&lt;div&gt;IF&lt;/div&gt;&lt;font style=&quot;font-size: 12px;&quot;&gt;namaMhs[i]equalsIgnoreCase&lt;/font&gt;&lt;div style=&quot;&quot;&gt;&lt;font style=&quot;font-size: 12px;&quot;&gt;(namaDicari)&lt;/font&gt;&lt;/div&gt;" style="rhombus;whiteSpace=wrap;html=1;rounded=0;" parent="WIyWlLk6GJQsqaUBKTNV-1" vertex="1">
          <mxGeometry x="895.19" y="480" width="208.87" height="120" as="geometry" />
        </mxCell>
        <mxCell id="CpKf-HVSkjeZZySReFww-11" value="" style="edgeStyle=orthogonalEdgeStyle;rounded=0;orthogonalLoop=1;jettySize=auto;html=1;fontFamily=Helvetica;fontSize=12;fontColor=default;" parent="WIyWlLk6GJQsqaUBKTNV-1" source="CpKf-HVSkjeZZySReFww-12" target="CpKf-HVSkjeZZySReFww-14" edge="1">
          <mxGeometry relative="1" as="geometry" />
        </mxCell>
        <mxCell id="CpKf-HVSkjeZZySReFww-12" value="ditemukan = true" style="whiteSpace=wrap;html=1;rounded=0;" parent="WIyWlLk6GJQsqaUBKTNV-1" vertex="1">
          <mxGeometry x="949.4300000000001" y="640" width="100.38" height="40" as="geometry" />
        </mxCell>
        <mxCell id="CpKf-HVSkjeZZySReFww-13" value="" style="edgeStyle=orthogonalEdgeStyle;rounded=0;orthogonalLoop=1;jettySize=auto;html=1;fontFamily=Helvetica;fontSize=12;fontColor=default;" parent="WIyWlLk6GJQsqaUBKTNV-1" source="CpKf-HVSkjeZZySReFww-14" target="CpKf-HVSkjeZZySReFww-16" edge="1">
          <mxGeometry relative="1" as="geometry" />
        </mxCell>
        <mxCell id="CpKf-HVSkjeZZySReFww-14" value="Print &quot;Data mahasiswa&quot; + namaMhs[i]&quot;:&quot;" style="shape=parallelogram;perimeter=parallelogramPerimeter;whiteSpace=wrap;html=1;fixedSize=1;rounded=0;" parent="WIyWlLk6GJQsqaUBKTNV-1" vertex="1">
          <mxGeometry x="869.6199999999999" y="720" width="260" height="40" as="geometry" />
        </mxCell>
        <mxCell id="CpKf-HVSkjeZZySReFww-15" value="" style="edgeStyle=orthogonalEdgeStyle;rounded=0;orthogonalLoop=1;jettySize=auto;html=1;fontFamily=Helvetica;fontSize=12;fontColor=default;" parent="WIyWlLk6GJQsqaUBKTNV-1" source="CpKf-HVSkjeZZySReFww-16" target="CpKf-HVSkjeZZySReFww-19" edge="1">
          <mxGeometry relative="1" as="geometry" />
        </mxCell>
        <mxCell id="CpKf-HVSkjeZZySReFww-16" value="double totalNilai=0&amp;nbsp;" style="whiteSpace=wrap;html=1;rounded=0;" parent="WIyWlLk6GJQsqaUBKTNV-1" vertex="1">
          <mxGeometry x="940.1399999999999" y="800" width="120" height="40" as="geometry" />
        </mxCell>
        <mxCell id="CpKf-HVSkjeZZySReFww-17" style="edgeStyle=orthogonalEdgeStyle;rounded=0;orthogonalLoop=1;jettySize=auto;html=1;exitX=1;exitY=0.5;exitDx=0;exitDy=0;fontFamily=Helvetica;fontSize=12;fontColor=default;entryX=1;entryY=0.5;entryDx=0;entryDy=0;" parent="WIyWlLk6GJQsqaUBKTNV-1" source="CpKf-HVSkjeZZySReFww-19" target="CpKf-HVSkjeZZySReFww-25" edge="1">
          <mxGeometry relative="1" as="geometry">
            <mxPoint x="1160" y="1360" as="targetPoint" />
            <Array as="points">
              <mxPoint x="1161" y="920" />
              <mxPoint x="1161" y="1260" />
            </Array>
          </mxGeometry>
        </mxCell>
        <mxCell id="CpKf-HVSkjeZZySReFww-18" value="" style="edgeStyle=orthogonalEdgeStyle;rounded=0;orthogonalLoop=1;jettySize=auto;html=1;" parent="WIyWlLk6GJQsqaUBKTNV-1" source="CpKf-HVSkjeZZySReFww-19" target="CpKf-HVSkjeZZySReFww-21" edge="1">
          <mxGeometry relative="1" as="geometry" />
        </mxCell>
        <mxCell id="CpKf-HVSkjeZZySReFww-19" value="j&amp;lt;jumlahMataKuliah" style="rhombus;whiteSpace=wrap;html=1;rounded=0;" parent="WIyWlLk6GJQsqaUBKTNV-1" vertex="1">
          <mxGeometry x="915.54" y="880" width="168.17" height="80" as="geometry" />
        </mxCell>
        <mxCell id="CpKf-HVSkjeZZySReFww-20" value="" style="edgeStyle=orthogonalEdgeStyle;rounded=0;orthogonalLoop=1;jettySize=auto;html=1;" parent="WIyWlLk6GJQsqaUBKTNV-1" source="CpKf-HVSkjeZZySReFww-21" target="CpKf-HVSkjeZZySReFww-48" edge="1">
          <mxGeometry relative="1" as="geometry" />
        </mxCell>
        <mxCell id="CpKf-HVSkjeZZySReFww-21" value="&quot;Nilai mata kuliah ke-&quot; + (j + 1) + &quot;: &quot; + nilai[i][j]" style="shape=parallelogram;perimeter=parallelogramPerimeter;fixedSize=1;rounded=0;whiteSpace=wrap;" parent="WIyWlLk6GJQsqaUBKTNV-1" vertex="1">
          <mxGeometry x="844.6399999999999" y="1000" width="310" height="40" as="geometry" />
        </mxCell>
        <mxCell id="CpKf-HVSkjeZZySReFww-22" style="edgeStyle=orthogonalEdgeStyle;rounded=0;orthogonalLoop=1;jettySize=auto;html=1;fontFamily=Helvetica;fontSize=12;fontColor=default;exitX=0.014;exitY=0.455;exitDx=0;exitDy=0;exitPerimeter=0;" parent="WIyWlLk6GJQsqaUBKTNV-1" source="CpKf-HVSkjeZZySReFww-23" edge="1">
          <mxGeometry relative="1" as="geometry">
            <mxPoint x="1000" y="860" as="targetPoint" />
            <Array as="points">
              <mxPoint x="954" y="1180" />
              <mxPoint x="820" y="1180" />
              <mxPoint x="820" y="860" />
            </Array>
            <mxPoint x="950" y="1180" as="sourcePoint" />
          </mxGeometry>
        </mxCell>
        <mxCell id="CpKf-HVSkjeZZySReFww-23" value="j++" style="whiteSpace=wrap;html=1;rounded=0;strokeColor=default;align=center;verticalAlign=middle;fontFamily=Helvetica;fontSize=12;fontColor=default;fillColor=default;" parent="WIyWlLk6GJQsqaUBKTNV-1" vertex="1">
          <mxGeometry x="952.51" y="1160" width="95.49" height="40" as="geometry" />
        </mxCell>
        <mxCell id="CpKf-HVSkjeZZySReFww-24" style="edgeStyle=orthogonalEdgeStyle;rounded=0;orthogonalLoop=1;jettySize=auto;html=1;fontFamily=Helvetica;fontSize=12;fontColor=default;exitX=0;exitY=0.5;exitDx=0;exitDy=0;" parent="WIyWlLk6GJQsqaUBKTNV-1" source="CpKf-HVSkjeZZySReFww-25" edge="1">
          <mxGeometry relative="1" as="geometry">
            <mxPoint x="1001.1300000000001" y="340" as="targetPoint" />
            <mxPoint x="949.1300000000001" y="1320" as="sourcePoint" />
            <Array as="points">
              <mxPoint x="781" y="1260" />
              <mxPoint x="781" y="340" />
            </Array>
          </mxGeometry>
        </mxCell>
        <mxCell id="CpKf-HVSkjeZZySReFww-25" value="i++" style="whiteSpace=wrap;html=1;rounded=0;strokeColor=default;align=center;verticalAlign=middle;fontFamily=Helvetica;fontSize=12;fontColor=default;fillColor=default;" parent="WIyWlLk6GJQsqaUBKTNV-1" vertex="1">
          <mxGeometry x="949.4300000000001" y="1240" width="95.49" height="40" as="geometry" />
        </mxCell>
        <mxCell id="CpKf-HVSkjeZZySReFww-26" style="edgeStyle=orthogonalEdgeStyle;rounded=0;orthogonalLoop=1;jettySize=auto;html=1;exitX=0.5;exitY=1;exitDx=0;exitDy=0;entryX=0.5;entryY=0;entryDx=0;entryDy=0;fontFamily=Helvetica;fontSize=12;fontColor=default;" parent="WIyWlLk6GJQsqaUBKTNV-1" source="CpKf-HVSkjeZZySReFww-27" target="CpKf-HVSkjeZZySReFww-31" edge="1">
          <mxGeometry relative="1" as="geometry" />
        </mxCell>
        <mxCell id="CpKf-HVSkjeZZySReFww-27" value="double rata-rata =&amp;nbsp;&lt;span style=&quot;background-color: initial;&quot;&gt;totalNilai/jumlahMataKuliah&lt;/span&gt;" style="rounded=0;whiteSpace=wrap;html=1;" parent="WIyWlLk6GJQsqaUBKTNV-1" vertex="1">
          <mxGeometry x="851" y="1320" width="300" height="40" as="geometry" />
        </mxCell>
        <mxCell id="CpKf-HVSkjeZZySReFww-28" value="iya" style="text;html=1;align=center;verticalAlign=middle;whiteSpace=wrap;rounded=0;fontFamily=Helvetica;fontSize=12;fontColor=default;" parent="WIyWlLk6GJQsqaUBKTNV-1" vertex="1">
          <mxGeometry x="999.6300000000001" y="440" width="60" height="30" as="geometry" />
        </mxCell>
        <mxCell id="CpKf-HVSkjeZZySReFww-29" value="tidak" style="text;html=1;align=center;verticalAlign=middle;whiteSpace=wrap;rounded=0;fontFamily=Helvetica;fontSize=12;fontColor=default;" parent="WIyWlLk6GJQsqaUBKTNV-1" vertex="1">
          <mxGeometry x="1048" y="370" width="60" height="30" as="geometry" />
        </mxCell>
        <mxCell id="CpKf-HVSkjeZZySReFww-30" style="edgeStyle=orthogonalEdgeStyle;rounded=0;orthogonalLoop=1;jettySize=auto;html=1;exitX=0.5;exitY=1;exitDx=0;exitDy=0;entryX=0.5;entryY=0;entryDx=0;entryDy=0;fontFamily=Helvetica;fontSize=12;fontColor=default;" parent="WIyWlLk6GJQsqaUBKTNV-1" source="CpKf-HVSkjeZZySReFww-31" target="CpKf-HVSkjeZZySReFww-33" edge="1">
          <mxGeometry relative="1" as="geometry" />
        </mxCell>
        <mxCell id="CpKf-HVSkjeZZySReFww-31" value="print &quot;rata rata nilai :&quot;+rata rata&amp;nbsp;" style="shape=parallelogram;perimeter=parallelogramPerimeter;whiteSpace=wrap;html=1;fixedSize=1;rounded=0;" parent="WIyWlLk6GJQsqaUBKTNV-1" vertex="1">
          <mxGeometry x="896" y="1400" width="210" height="40" as="geometry" />
        </mxCell>
        <mxCell id="CpKf-HVSkjeZZySReFww-32" value="iya" style="text;html=1;align=center;verticalAlign=middle;whiteSpace=wrap;rounded=0;fontFamily=Helvetica;fontSize=12;fontColor=default;" parent="WIyWlLk6GJQsqaUBKTNV-1" vertex="1">
          <mxGeometry x="1000.14" y="600" width="60" height="30" as="geometry" />
        </mxCell>
        <mxCell id="CpKf-HVSkjeZZySReFww-33" value="if rata&amp;lt;75" style="rhombus;whiteSpace=wrap;html=1;rounded=0;" parent="WIyWlLk6GJQsqaUBKTNV-1" vertex="1">
          <mxGeometry x="961" y="1480" width="80" height="80" as="geometry" />
        </mxCell>
        <mxCell id="CpKf-HVSkjeZZySReFww-34" value="Print namaMhs[i] + &quot;dinyatakan LULUS.&quot;" style="shape=parallelogram;perimeter=parallelogramPerimeter;fixedSize=1;rounded=0;fillColor=default;strokeColor=default;fontColor=default;" parent="WIyWlLk6GJQsqaUBKTNV-1" vertex="1">
          <mxGeometry x="755" y="1600" width="250" height="40" as="geometry" />
        </mxCell>
        <mxCell id="CpKf-HVSkjeZZySReFww-35" style="edgeStyle=orthogonalEdgeStyle;rounded=0;orthogonalLoop=1;jettySize=auto;html=1;exitX=0.5;exitY=1;exitDx=0;exitDy=0;entryX=1;entryY=0.5;entryDx=0;entryDy=0;fontFamily=Helvetica;fontSize=12;fontColor=default;" parent="WIyWlLk6GJQsqaUBKTNV-1" source="CpKf-HVSkjeZZySReFww-36" target="CpKf-HVSkjeZZySReFww-39" edge="1">
          <mxGeometry relative="1" as="geometry" />
        </mxCell>
        <mxCell id="CpKf-HVSkjeZZySReFww-36" value="Print&amp;nbsp;&lt;span style=&quot;background-color: initial;&quot;&gt;namaMhs[i] + &quot;dinyatakan tidak LULUS.&quot;&lt;/span&gt;" style="shape=parallelogram;perimeter=parallelogramPerimeter;whiteSpace=wrap;html=1;fixedSize=1;rounded=0;" parent="WIyWlLk6GJQsqaUBKTNV-1" vertex="1">
          <mxGeometry x="999.52" y="1600" width="242.99" height="40" as="geometry" />
        </mxCell>
        <mxCell id="CpKf-HVSkjeZZySReFww-37" value="iya" style="text;html=1;align=center;verticalAlign=middle;whiteSpace=wrap;rounded=0;fontFamily=Helvetica;fontSize=12;fontColor=default;" parent="WIyWlLk6GJQsqaUBKTNV-1" vertex="1">
          <mxGeometry x="901.0000000000001" y="1490" width="60" height="30" as="geometry" />
        </mxCell>
        <mxCell id="CpKf-HVSkjeZZySReFww-38" value="tidak" style="text;html=1;align=center;verticalAlign=middle;whiteSpace=wrap;rounded=0;fontFamily=Helvetica;fontSize=12;fontColor=default;" parent="WIyWlLk6GJQsqaUBKTNV-1" vertex="1">
          <mxGeometry x="1041" y="1490" width="60" height="30" as="geometry" />
        </mxCell>
        <mxCell id="CpKf-HVSkjeZZySReFww-39" value="Break" style="ellipse;whiteSpace=wrap;html=1;rounded=0;strokeColor=default;align=center;verticalAlign=middle;fontFamily=Helvetica;fontSize=12;fontColor=default;fillColor=default;" parent="WIyWlLk6GJQsqaUBKTNV-1" vertex="1">
          <mxGeometry x="955.6399999999999" y="1680" width="89" height="40" as="geometry" />
        </mxCell>
        <mxCell id="CpKf-HVSkjeZZySReFww-40" value="" style="edgeStyle=orthogonalEdgeStyle;rounded=0;orthogonalLoop=1;jettySize=auto;html=1;fontFamily=Helvetica;fontSize=12;fontColor=default;" parent="WIyWlLk6GJQsqaUBKTNV-1" source="CpKf-HVSkjeZZySReFww-41" target="CpKf-HVSkjeZZySReFww-43" edge="1">
          <mxGeometry relative="1" as="geometry" />
        </mxCell>
        <mxCell id="CpKf-HVSkjeZZySReFww-41" value="!ditemukan&amp;nbsp;" style="whiteSpace=wrap;html=1;rounded=0;" parent="WIyWlLk6GJQsqaUBKTNV-1" vertex="1">
          <mxGeometry x="1200" y="520" width="120" height="40" as="geometry" />
        </mxCell>
        <mxCell id="CpKf-HVSkjeZZySReFww-42" value="" style="edgeStyle=orthogonalEdgeStyle;rounded=0;orthogonalLoop=1;jettySize=auto;html=1;" parent="WIyWlLk6GJQsqaUBKTNV-1" source="CpKf-HVSkjeZZySReFww-43" target="CpKf-HVSkjeZZySReFww-45" edge="1">
          <mxGeometry relative="1" as="geometry" />
        </mxCell>
        <mxCell id="CpKf-HVSkjeZZySReFww-43" value="&quot;Mahasiswa dengan nama &quot; + namaDicari + &quot; tidak ditemukan.&quot;" style="shape=parallelogram;perimeter=parallelogramPerimeter;fixedSize=1;rounded=0;whiteSpace=wrap;" parent="WIyWlLk6GJQsqaUBKTNV-1" vertex="1">
          <mxGeometry x="1074" y="600" width="372" height="40" as="geometry" />
        </mxCell>
        <mxCell id="CpKf-HVSkjeZZySReFww-44" value="tidak" style="text;html=1;align=center;verticalAlign=middle;whiteSpace=wrap;rounded=0;fontFamily=Helvetica;fontSize=12;fontColor=default;" parent="WIyWlLk6GJQsqaUBKTNV-1" vertex="1">
          <mxGeometry x="1104.06" y="510" width="60" height="30" as="geometry" />
        </mxCell>
        <mxCell id="CpKf-HVSkjeZZySReFww-45" value="End" style="ellipse;whiteSpace=wrap;html=1;" parent="WIyWlLk6GJQsqaUBKTNV-1" vertex="1">
          <mxGeometry x="1200" y="680" width="120" height="40" as="geometry" />
        </mxCell>
        <mxCell id="CpKf-HVSkjeZZySReFww-46" value="iya" style="text;html=1;align=center;verticalAlign=middle;whiteSpace=wrap;rounded=0;" parent="WIyWlLk6GJQsqaUBKTNV-1" vertex="1">
          <mxGeometry x="998.46" y="960" width="60" height="30" as="geometry" />
        </mxCell>
        <mxCell id="CpKf-HVSkjeZZySReFww-47" value="" style="edgeStyle=orthogonalEdgeStyle;rounded=0;orthogonalLoop=1;jettySize=auto;html=1;" parent="WIyWlLk6GJQsqaUBKTNV-1" source="CpKf-HVSkjeZZySReFww-48" target="CpKf-HVSkjeZZySReFww-23" edge="1">
          <mxGeometry relative="1" as="geometry" />
        </mxCell>
        <mxCell id="CpKf-HVSkjeZZySReFww-48" value="totalNilai += nilai[i][j];" style="whiteSpace=wrap;html=1;rounded=0;" parent="WIyWlLk6GJQsqaUBKTNV-1" vertex="1">
          <mxGeometry x="939.6199999999999" y="1080" width="120" height="40" as="geometry" />
        </mxCell>
        <mxCell id="CpKf-HVSkjeZZySReFww-49" value="" style="endArrow=classic;html=1;rounded=0;entryX=0.5;entryY=0;entryDx=0;entryDy=0;" parent="WIyWlLk6GJQsqaUBKTNV-1" target="CpKf-HVSkjeZZySReFww-34" edge="1">
          <mxGeometry width="50" height="50" relative="1" as="geometry">
            <mxPoint x="960" y="1520" as="sourcePoint" />
            <mxPoint x="980" y="1560" as="targetPoint" />
            <Array as="points">
              <mxPoint x="880" y="1520" />
            </Array>
          </mxGeometry>
        </mxCell>
        <mxCell id="CpKf-HVSkjeZZySReFww-50" value="" style="endArrow=classic;html=1;rounded=0;exitX=0.25;exitY=0;exitDx=0;exitDy=0;entryX=0.5;entryY=0;entryDx=0;entryDy=0;" parent="WIyWlLk6GJQsqaUBKTNV-1" edge="1">
          <mxGeometry width="50" height="50" relative="1" as="geometry">
            <mxPoint x="1039.63" y="1520" as="sourcePoint" />
            <mxPoint x="1120.0149999999999" y="1600" as="targetPoint" />
            <Array as="points">
              <mxPoint x="1120" y="1520" />
            </Array>
          </mxGeometry>
        </mxCell>
        <mxCell id="CpKf-HVSkjeZZySReFww-51" value="" style="endArrow=classic;html=1;rounded=0;exitX=0.5;exitY=1;exitDx=0;exitDy=0;entryX=0;entryY=0.5;entryDx=0;entryDy=0;" parent="WIyWlLk6GJQsqaUBKTNV-1" source="CpKf-HVSkjeZZySReFww-34" target="CpKf-HVSkjeZZySReFww-39" edge="1">
          <mxGeometry width="50" height="50" relative="1" as="geometry">
            <mxPoint x="960" y="1680" as="sourcePoint" />
            <mxPoint x="950" y="1700" as="targetPoint" />
            <Array as="points">
              <mxPoint x="880" y="1700" />
            </Array>
          </mxGeometry>
        </mxCell>
        <mxCell id="CpKf-HVSkjeZZySReFww-53" value="" style="edgeStyle=orthogonalEdgeStyle;rounded=0;orthogonalLoop=1;jettySize=auto;html=1;fontFamily=Helvetica;fontSize=12;fontColor=default;" parent="WIyWlLk6GJQsqaUBKTNV-1" source="CpKf-HVSkjeZZySReFww-54" edge="1">
          <mxGeometry relative="1" as="geometry">
            <mxPoint x="1000.01" y="200" as="targetPoint" />
          </mxGeometry>
        </mxCell>
        <mxCell id="CpKf-HVSkjeZZySReFww-54" value="input namaMhs yang dicari" style="shape=parallelogram;perimeter=parallelogramPerimeter;whiteSpace=wrap;html=1;fixedSize=1;" parent="WIyWlLk6GJQsqaUBKTNV-1" vertex="1">
          <mxGeometry x="882.8900000000001" y="120" width="233.49" height="40" as="geometry" />
        </mxCell>
        <mxCell id="CpKf-HVSkjeZZySReFww-56" value="A" style="ellipse;whiteSpace=wrap;html=1;aspect=fixed;" parent="WIyWlLk6GJQsqaUBKTNV-1" vertex="1">
          <mxGeometry x="379.62" y="1520" width="40" height="40" as="geometry" />
        </mxCell>
        <mxCell id="CpKf-HVSkjeZZySReFww-58" value="" style="edgeStyle=orthogonalEdgeStyle;rounded=0;orthogonalLoop=1;jettySize=auto;html=1;" parent="WIyWlLk6GJQsqaUBKTNV-1" source="CpKf-HVSkjeZZySReFww-57" target="CpKf-HVSkjeZZySReFww-54" edge="1">
          <mxGeometry relative="1" as="geometry" />
        </mxCell>
        <mxCell id="CpKf-HVSkjeZZySReFww-57" value="A" style="ellipse;whiteSpace=wrap;html=1;aspect=fixed;" parent="WIyWlLk6GJQsqaUBKTNV-1" vertex="1">
          <mxGeometry x="979.64" y="40" width="40" height="40" as="geometry" />
        </mxCell>
        <mxCell id="qdThJJ4EBZ8srJV8Bd_6-0" value="tidak" style="text;html=1;align=center;verticalAlign=middle;whiteSpace=wrap;rounded=0;" vertex="1" parent="WIyWlLk6GJQsqaUBKTNV-1">
          <mxGeometry x="1083.71" y="890" width="60" height="30" as="geometry" />
        </mxCell>
      </root>
    </mxGraphModel>
  </diagram>
</mxfile>
